<svg width="26" height="28" viewBox="0 0 26 28" fill="none" xmlns="http://www.w3.org/2000/svg">
<g clip-path="url(#clip0_29581_11235)">
<path d="M13 25.945C20.1797 25.945 26 20.2564 26 13.2391C26 6.22182 20.1797 0.533203 13 0.533203C5.8203 0.533203 0 6.22182 0 13.2391C0 20.2564 5.8203 25.945 13 25.945Z" fill="#B4F9BA"/>
<path fill-rule="evenodd" clip-rule="evenodd" d="M18.5402 8.36335L10.789 15.6851L8.74145 13.5251C8.54779 13.36 8.30264 13.2638 8.04591 13.2523C7.78919 13.2408 7.53604 13.3145 7.3277 13.4616C7.12613 13.6 6.9845 13.8068 6.93043 14.0417C6.87635 14.2766 6.9137 14.5227 7.0352 14.7322L9.4727 18.6234C9.71645 18.9728 10.139 19.1951 10.594 19.1951C11.049 19.1951 11.4552 18.9728 11.699 18.6234C12.089 18.131 19.5315 9.44335 19.5315 9.44335C20.5065 8.49041 19.3202 7.61688 18.5564 8.36335H18.5402Z" fill="#03900F"/>
</g>
<defs>
<clipPath id="clip0_29581_11235">
<rect width="26" height="27" fill="white" transform="translate(0 0.216797)"/>
</clipPath>
</defs>
</svg>
