<svg width="338" height="394" viewBox="0 0 338 394" fill="none" xmlns="http://www.w3.org/2000/svg">
<path d="M59.3073 1.21055C58.1065 -5.78165 62.0118 74.5555 34.4822 130.416C14.9652 170.018 4.20299 192.837 1.5085 231.878C-0.954654 267.568 8.142 297.372 24.4008 311.711C47.7366 326.06 123.444 371.461 140.503 381.687C118.367 365.076 108.736 290.353 143.939 223.51C179.718 159.524 179.09 67.1441 179.718 72.3015C235.162 86.2336 261.902 102.29 295.712 157.498L310.381 112.925C282.129 89.9373 248.598 72.2374 190.613 41.1625L187.146 61.7335C187.146 61.7335 161.347 52.1277 134.678 32.3793C108.009 12.6309 59.3993 1.00095 59.3073 1.21055Z" fill="#B4F9BA"/>
<path d="M166.341 314.112L251.703 366.256C251.703 366.256 269.772 342.869 279.666 314.112C288.309 288.992 290.233 259.427 274.71 242.323C248.4 219.332 251.703 175.803 251.703 175.803C219.214 220.982 203.817 248.383 184.682 303.38L175.703 286.17C172.314 295.785 169.267 304.579 166.77 312.705C166.625 313.176 166.482 313.645 166.341 314.112Z" fill="#B4F9BA"/>
<path d="M179.718 72.3015C179.09 67.1441 179.718 159.524 143.939 223.51C108.736 290.353 118.367 365.076 140.503 381.687C142.713 383.012 143.939 383.746 143.939 383.746C157.804 390.84 166.067 393.183 182.063 393.171C155.784 370.89 155.936 348.524 166.341 314.112C166.482 313.645 166.625 313.176 166.77 312.705C169.267 304.579 172.314 295.785 175.703 286.17L184.682 303.38C203.817 248.383 219.214 220.982 251.703 175.803C251.703 175.803 248.4 219.332 274.71 242.323C290.233 259.427 288.309 288.992 279.666 314.112C269.772 342.869 251.703 366.256 251.703 366.256C340.166 277.162 359.74 179.292 310.381 112.925L295.712 157.498C261.902 102.29 235.162 86.2336 179.718 72.3015Z" fill="#66E070"/>
<path d="M143.939 383.746C157.804 390.84 166.067 393.183 182.063 393.171M143.939 383.746C142.765 383.213 141.618 382.524 140.503 381.687M143.939 383.746C143.939 383.746 142.713 383.012 140.503 381.687M310.381 112.925L295.712 157.498C261.902 102.29 235.162 86.2336 179.718 72.3015C179.09 67.1441 179.718 159.524 143.939 223.51C108.736 290.353 118.367 365.076 140.503 381.687M310.381 112.925C359.74 179.292 340.166 277.162 251.703 366.256M310.381 112.925C282.129 89.9373 248.598 72.2374 190.613 41.1625L187.146 61.7335C187.146 61.7335 161.347 52.1277 134.678 32.3793C108.009 12.6309 59.3993 1.00095 59.3073 1.21055C58.1065 -5.78165 62.0118 74.5555 34.4822 130.416C14.9652 170.018 4.20299 192.837 1.5085 231.878C-0.954654 267.568 8.142 297.372 24.4008 311.711C47.7366 326.06 123.444 371.461 140.503 381.687M251.703 366.256L166.341 314.112M251.703 366.256C251.703 366.256 269.772 342.869 279.666 314.112C288.309 288.992 290.233 259.427 274.71 242.323C248.4 219.332 251.703 175.803 251.703 175.803C219.214 220.982 203.817 248.383 184.682 303.38L175.703 286.17C172.314 295.785 169.267 304.579 166.77 312.705M166.341 314.112C155.936 348.524 155.784 370.89 182.063 393.171M166.341 314.112C166.482 313.645 166.625 313.176 166.77 312.705M182.063 393.171C155.427 370.587 155.945 347.918 166.77 312.705" stroke="black" stroke-width="0.5"/>
</svg>
