<svg width="86" height="25" viewBox="0 0 86 25" fill="none" xmlns="http://www.w3.org/2000/svg">
<g clip-path="url(#clip0_29654_952)">
<path d="M6.4897 3.0197L10.3246 0.805067C10.4338 0.742061 10.5693 0.742061 10.6785 0.805067L20.7856 6.64041C20.8948 6.70342 20.962 6.81998 20.9631 6.94599L20.9767 10.9594C20.9767 11.0865 20.9095 11.2041 20.7993 11.2671L16.9696 13.4786C16.7344 13.6151 16.4393 13.445 16.4382 13.173L16.4256 9.57121C16.4256 9.4452 16.3574 9.32864 16.2482 9.26563L6.4897 3.63296C6.25343 3.49644 6.25343 3.15622 6.4897 3.0197Z" fill="#010101"/>
<path d="M4.01134 21.1987L0.177465 18.9851C0.0672057 18.9221 0 18.8055 0 18.6785V7.00778C0 6.88177 0.0672057 6.76521 0.176415 6.70115L3.64591 4.68183C3.75617 4.61778 3.89163 4.61778 4.00084 4.68183L7.83051 6.89332C8.06573 7.02983 8.06678 7.36901 7.83156 7.50657L4.7191 9.31797C4.60989 9.38098 4.54269 9.49754 4.54269 9.6246V20.8931C4.54269 21.1661 4.24761 21.3362 4.01134 21.1997V21.1987Z" fill="#010101"/>
<path d="M20.9787 14.2503V18.6775C20.9787 18.8046 20.9115 18.9211 20.8013 18.9841L10.6942 24.8195C10.585 24.8825 10.4506 24.8825 10.3413 24.8195L6.8582 22.8243C6.74794 22.7613 6.67969 22.6437 6.67969 22.5166V18.0947C6.67969 17.8227 6.97371 17.6526 7.20998 17.787L10.335 19.5774C10.4443 19.6404 10.5787 19.6394 10.6879 19.5774L20.4464 13.9427C20.6826 13.8061 20.9777 13.9763 20.9777 14.2493L20.9787 14.2503Z" fill="#010101"/>
<path d="M53.7526 6.84523H49.8379C49.6678 6.84523 49.5313 6.98279 49.5313 7.1529V14.5991C49.5313 15.5515 49.3769 16.3485 49.0671 16.9891C48.7573 17.6107 48.3321 18.077 47.7902 18.3878C47.2484 18.6787 46.6288 18.8257 45.9326 18.8257C44.9256 18.8257 44.1422 18.5243 43.5814 17.9226C43.0396 17.301 42.7687 16.338 42.7687 15.037V7.15395C42.7687 6.98384 42.6311 6.84628 42.4621 6.84628H39.6184C39.5953 6.84208 39.5722 6.83998 39.5491 6.83998H33.8849V6.52495C33.8849 5.76679 34.0592 5.20394 34.4079 4.83431C34.7754 4.44577 35.2889 4.25151 35.9462 4.25151C36.2949 4.25151 36.6236 4.29981 36.9333 4.39747C37.1245 4.45837 37.3124 4.53713 37.4752 4.62324C37.6379 4.70935 37.8396 4.62744 37.9015 4.45312L38.8802 1.74495C38.9306 1.60423 38.8739 1.44672 38.7447 1.37216C38.3625 1.15059 37.9141 0.983631 37.3975 0.870221C36.7979 0.73476 36.1689 0.666504 35.5105 0.666504C33.5762 0.666504 32.0861 1.201 31.0402 2.26999C29.9954 3.31903 29.4725 4.72825 29.4725 6.4966V6.83998H27.4269C27.2263 6.83998 27.0625 6.97754 27.0625 7.14765V10.0291C27.0625 10.1992 27.2253 10.3368 27.4269 10.3368H29.4725V22.2185C29.4725 22.3886 29.61 22.5262 29.7791 22.5262H33.6928C33.8618 22.5262 33.9994 22.3886 33.9994 22.2185V10.3368H38.2396V15.7059C38.2396 17.3188 38.52 18.6503 39.0818 19.6994C39.6436 20.7295 40.427 21.4971 41.433 22.0022C42.4589 22.5073 43.6203 22.7604 44.9161 22.7604C46.1164 22.7604 47.219 22.4884 48.2249 21.9434C48.8235 21.6147 49.3359 21.1947 49.7633 20.6864V22.2185C49.7633 22.3886 49.9009 22.5262 50.0699 22.5262H53.7526C53.9227 22.5262 54.0592 22.3886 54.0592 22.2185V7.15395C54.0592 6.98384 53.9217 6.84628 53.7526 6.84628V6.84523Z" fill="#010101"/>
<path d="M66.9298 14.3062C66.388 13.9754 65.7779 13.7234 65.1006 13.548C64.4243 13.3737 63.746 13.2466 63.0687 13.1689C62.4113 13.0713 61.8012 12.9652 61.2394 12.8486C60.6787 12.7321 60.2229 12.5767 59.8753 12.3824C59.5456 12.1881 59.3818 11.8973 59.3818 11.5077C59.3818 11.0803 59.6139 10.7306 60.0791 10.4586C60.5432 10.1867 61.2793 10.0512 62.2853 10.0512C63.0014 10.0512 63.7365 10.1384 64.4915 10.3137C65.1688 10.4492 65.8377 10.697 66.5003 11.0561C66.6568 11.1401 66.85 11.0782 66.9256 10.9175L68.1752 8.2398C68.2435 8.09383 68.1878 7.91742 68.0471 7.84076C67.3562 7.46378 66.5203 7.17081 65.5374 6.96394C64.4348 6.73082 63.3511 6.61426 62.2863 6.61426C60.7774 6.61426 59.4805 6.83793 58.3968 7.28421C57.3131 7.71265 56.4814 8.3049 55.9007 9.06307C55.34 9.82123 55.0586 10.6949 55.0586 11.6862C55.0586 12.5798 55.2234 13.3086 55.5521 13.8725C55.9007 14.4353 56.3554 14.8827 56.9162 15.2134C57.478 15.5442 58.0965 15.7962 58.7738 15.9716C59.4511 16.127 60.1189 16.253 60.7763 16.3507C61.4536 16.4483 62.0732 16.5449 62.6339 16.6416C63.1947 16.7392 63.6399 16.8852 63.9696 17.0794C64.3183 17.2548 64.4926 17.5268 64.4926 17.8954C64.4926 18.3427 64.27 18.6924 63.8247 18.9444C63.3994 19.1964 62.6633 19.3235 61.6185 19.3235C60.6702 19.3235 59.7031 19.188 58.716 18.916C57.8749 18.663 57.1293 18.3511 56.4783 17.9804C56.3218 17.8912 56.1234 17.9542 56.0478 18.118L54.794 20.8304C54.7278 20.9732 54.7813 21.1422 54.9147 21.2241C55.6025 21.6442 56.4919 22.0023 57.583 22.2973C58.821 22.6082 60.1085 22.7636 61.4431 22.7636V22.7615C63.0098 22.7615 64.3361 22.5483 65.4198 22.1209C66.5224 21.6935 67.3646 21.1107 67.9453 20.3725C68.526 19.6154 68.8158 18.7501 68.8158 17.7788C68.8158 16.8852 68.6415 16.1659 68.2928 15.6219C67.9442 15.058 67.4895 14.6212 66.9288 14.3104L66.9298 14.3062Z" fill="#010101"/>
<path d="M84.501 10.4031C83.7848 9.17865 82.8082 8.24617 81.5691 7.60457C80.35 6.94406 79.0342 6.61328 77.4475 6.61328C75.8609 6.61328 74.438 6.96296 73.181 7.66232C71.923 8.34173 70.9265 9.29416 70.1914 10.5186C69.4753 11.723 69.1172 13.1322 69.1172 14.6864C69.1172 16.2405 69.4847 17.6308 70.2198 18.8542C70.9548 20.0586 71.9902 21.011 73.3249 21.7104C74.6795 22.4098 76.2462 22.7594 78.0272 22.7594V22.7615C79.4406 22.7615 80.6892 22.5473 81.7718 22.121C82.7599 21.7136 83.5948 21.1518 84.2773 20.4377C84.3886 20.3211 84.3886 20.1363 84.2794 20.0166L82.2685 17.8272C82.1551 17.7043 81.9661 17.6959 81.839 17.8062C81.3759 18.2105 80.8698 18.5213 80.3195 18.7387C79.7 18.9907 78.9744 19.1177 78.1427 19.1177C77.2144 19.1177 76.4017 18.9529 75.7044 18.6221C75.0271 18.2724 74.4947 17.7768 74.1083 17.1362C73.9077 16.7771 73.7649 16.3875 73.6735 15.9696H85.2087C85.3663 15.9696 85.4986 15.8488 85.5133 15.6913C85.5238 15.5831 85.5343 15.4708 85.5437 15.3574C85.5637 15.1243 85.5731 14.9205 85.5731 14.7452C85.5731 13.0545 85.2151 11.6075 84.4989 10.402L84.501 10.4031ZM75.4156 10.5784C76.0152 10.2287 76.703 10.0534 77.477 10.0534C78.2509 10.0534 78.9282 10.2287 79.5089 10.5784C80.0896 10.9081 80.5443 11.3754 80.8729 11.9771C81.0914 12.3762 81.2352 12.8235 81.3087 13.317H73.621C73.6966 12.8319 73.8394 12.394 74.0516 12.0055C74.3813 11.3838 74.8349 10.9081 75.4156 10.5774V10.5784Z" fill="#010101"/>
</g>
<defs>
<clipPath id="clip0_29654_952">
<rect width="85.5707" height="24.2014" fill="white" transform="translate(0 0.666504)"/>
</clipPath>
</defs>
</svg>
